<?xml version="1.0" encoding="UTF-8"?>
<svg id="Capa_1" data-name="Capa 1" xmlns="http://www.w3.org/2000/svg" viewBox="0 0 1080 1080">
  <defs>
    <style>
      .cls-1 {
        fill: #fff;
      }

      .cls-2 {
        fill: #9553ff;
      }
    </style>
  </defs>
  <circle class="cls-1" cx="540" cy="540" r="531.57"/>
  <g>
    <path class="cls-2" d="m328.52,330h104.11l145.52,420h-99.38l-28.47-94.06h-138.68l-28.65,94.06h-99.38l144.93-420Zm101.72,259.69l-49.07-162.08-49.37,162.08h98.44Z"/>
    <path class="cls-2" d="m812.83,750h-213.38c0-18.75,1.48-35.51,4.44-50.28,2.96-14.77,7.88-28.34,14.79-40.71,6.89-12.37,16.17-23.85,27.8-34.42,11.63-10.57,26.32-20.26,44.07-29.04,18.53-10.37,34.01-19.05,46.44-26.04,12.42-6.99,22.27-12.97,29.58-17.96,7.29-4.99,12.52-9.68,15.68-14.07,3.15-4.39,4.73-9.38,4.73-14.97,0-7.78-1.78-14.45-5.32-19.97-3.55-5.53-8.68-9.94-15.38-13.22-6.71-3.27-14.99-4.92-24.84-4.92-7.89,0-15.38.99-22.48,2.96-7.1,1.98-13.9,4.94-20.41,8.87-6.51,3.95-12.82,8.58-18.93,13.9-6.12,5.32-11.74,11.34-16.86,18.04l-60.34-69.8c6.7-7.1,15.18-13.9,25.44-20.41,10.25-6.51,22.18-12.42,35.79-17.75,13.61-5.32,28.29-9.66,44.07-13.01,15.77-3.35,32.53-5.03,50.28-5.03,28.39,0,52.35,4.3,71.87,12.88,19.52,8.58,34.4,20.65,44.66,36.21,10.25,15.56,15.38,34.12,15.38,55.68,0,13.25-2.07,25.11-6.21,35.56-4.14,10.44-9.57,19.59-16.27,27.41-6.71,7.84-14.2,14.96-22.48,21.39-8.28,6.43-16.77,12.26-25.44,17.48-9.46,4.83-18.25,9.54-26.32,14.16-8.09,4.62-15.78,9.05-23.07,13.26-7.3,4.21-14,8.73-20.11,13.55-6.12,4.83-11.93,9.84-17.45,15.07h80.28v85.18Zm17.19-85.18h66.38v85.18h-66.38v-85.18Z"/>
  </g>
</svg>